<svg width="22" height="22" viewBox="0 0 22 22" fill="none" xmlns="http://www.w3.org/2000/svg">
<path d="M14.3579 10.47L13.8276 11.0003L14.3579 11.5307L20.6633 17.8362C21.4456 18.6185 21.4456 19.8816 20.6633 20.664C20.273 21.0542 19.7622 21.25 19.2495 21.25C18.7368 21.25 18.2259 21.0542 17.8357 20.664L11.5303 14.3584L11 13.828L10.4697 14.3584L4.16431 20.664C3.77406 21.0542 3.26321 21.25 2.75051 21.25C2.23782 21.25 1.72697 21.0542 1.33673 20.664C0.554425 19.8816 0.554425 18.6185 1.33673 17.8362L7.64208 11.5307L8.17239 11.0003L7.64208 10.47L1.33673 4.16447C0.554425 3.38215 0.554425 2.11906 1.33673 1.33673C2.11901 0.554422 3.38202 0.554422 4.16431 1.33673L10.4697 7.64229L11 8.17264L11.5303 7.64229L17.8357 1.33673C18.618 0.554422 19.881 0.554422 20.6633 1.33673C21.4456 2.11906 21.4456 3.38215 20.6633 4.16447L14.3579 10.47Z" fill="#D9D9D9" stroke="white" stroke-width="1.5"/>
</svg>
