<svg width="20" height="20" viewBox="0 0 20 20" fill="none" xmlns="http://www.w3.org/2000/svg">
<g clip-path="url(#clip0_1_373)">
<path d="M18.3334 3.33333H14.9159C14.5284 1.43417 12.8459 0 10.8334 0H9.16671C7.15504 0 5.47171 1.43417 5.08421 3.33333H1.66671C1.20671 3.33333 0.833374 3.70583 0.833374 4.16667C0.833374 4.6275 1.20671 5 1.66671 5H2.38337L3.46337 16.2325C3.67004 18.3808 5.45337 20 7.61087 20H12.3834C14.5442 20 16.3275 18.3775 16.5317 16.2267L17.595 5H18.3325C18.7925 5 19.1659 4.6275 19.1659 4.16667C19.1659 3.70583 18.7934 3.33333 18.3334 3.33333ZM9.16671 1.66667H10.8334C11.9184 1.66667 12.835 2.36583 13.18 3.33333H6.82087C7.16587 2.36583 8.08254 1.66667 9.16754 1.66667H9.16671ZM13.0892 13.5775C13.415 13.9033 13.415 14.43 13.0892 14.7558C12.9267 14.9183 12.7134 15 12.5 15C12.2867 15 12.0734 14.9183 11.9109 14.7558L10 12.845L8.08921 14.7558C7.92671 14.9183 7.71337 15 7.50004 15C7.28671 15 7.07337 14.9183 6.91087 14.7558C6.58504 14.43 6.58504 13.9033 6.91087 13.5775L8.82171 11.6667L6.91087 9.75583C6.58504 9.43 6.58504 8.90333 6.91087 8.5775C7.23671 8.25167 7.76337 8.25167 8.08921 8.5775L10 10.4883L11.9109 8.5775C12.2367 8.25167 12.7634 8.25167 13.0892 8.5775C13.415 8.90333 13.415 9.43 13.0892 9.75583L11.1784 11.6667L13.0892 13.5775Z" fill="#E15454"/>
</g>
<defs>
<clipPath id="clip0_1_373">
<rect width="20" height="20" fill="white"/>
</clipPath>
</defs>
</svg>
