<svg width="14" height="7" viewBox="0 0 14 7" fill="none" xmlns="http://www.w3.org/2000/svg">
<path d="M12.8719 0.758824C12.7906 0.676811 12.6938 0.611716 12.5872 0.567293C12.4806 0.522871 12.3662 0.5 12.2507 0.5C12.1352 0.5 12.0208 0.522871 11.9142 0.567293C11.8076 0.611716 11.7108 0.676811 11.6294 0.758824L7.62194 4.76632C7.5406 4.84834 7.44382 4.91343 7.3372 4.95785C7.23057 5.00228 7.1162 5.02515 7.00069 5.02515C6.88518 5.02515 6.77082 5.00228 6.66419 4.95785C6.55756 4.91343 6.46079 4.84834 6.37944 4.76632L2.37194 0.758824C2.2906 0.676811 2.19382 0.611716 2.0872 0.567293C1.98057 0.522871 1.8662 0.5 1.75069 0.5C1.63518 0.5 1.52082 0.522871 1.41419 0.567293C1.30756 0.611716 1.21079 0.676811 1.12944 0.758824C0.966474 0.922766 0.875 1.14454 0.875 1.3757C0.875 1.60686 0.966474 1.82863 1.12944 1.99257L5.14569 6.00882C5.63788 6.5004 6.30507 6.77651 7.00069 6.77651C7.69632 6.77651 8.3635 6.5004 8.85569 6.00882L12.8719 1.99257C13.0349 1.82863 13.1264 1.60686 13.1264 1.3757C13.1264 1.14454 13.0349 0.922766 12.8719 0.758824Z" fill="white"/>
</svg>
