<svg width="16" height="16" viewBox="0 0 16 16" fill="none" xmlns="http://www.w3.org/2000/svg">
<path d="M14.7108 4.2958C14.6178 4.20207 14.5072 4.12768 14.3854 4.07691C14.2635 4.02614 14.1328 4 14.0008 4C13.8688 4 13.7381 4.02614 13.6162 4.07691C13.4944 4.12768 13.3838 4.20207 13.2908 4.2958L8.71079 8.8758C8.61783 8.96953 8.50723 9.04392 8.38537 9.09469C8.26351 9.14546 8.1328 9.1716 8.00079 9.1716C7.86878 9.1716 7.73807 9.14546 7.61622 9.09469C7.49436 9.04392 7.38376 8.96953 7.29079 8.8758L2.71079 4.2958C2.61783 4.20207 2.50723 4.12768 2.38537 4.07691C2.26351 4.02614 2.1328 4 2.00079 4C1.86878 4 1.73807 4.02614 1.61622 4.07691C1.49436 4.12768 1.38376 4.20207 1.29079 4.2958C1.10454 4.48316 1 4.73661 1 5.0008C1 5.26498 1.10454 5.51844 1.29079 5.7058L5.88079 10.2958C6.44329 10.8576 7.20579 11.1732 8.00079 11.1732C8.79579 11.1732 9.55829 10.8576 10.1208 10.2958L14.7108 5.7058C14.897 5.51844 15.0016 5.26498 15.0016 5.0008C15.0016 4.73661 14.897 4.48316 14.7108 4.2958Z" fill="#2E302E"/>
</svg>
