<svg width="20" height="20" viewBox="0 0 20 20" fill="none" xmlns="http://www.w3.org/2000/svg">
<path d="M19.8508 9.3175C19.1192 7.7175 16.25 2.5 10 2.5C3.75002 2.5 0.880848 7.7175 0.149181 9.3175C0.0509633 9.53192 0.00012207 9.76499 0.00012207 10.0008C0.00012207 10.2367 0.0509633 10.4697 0.149181 10.6842C0.880848 12.2825 3.75002 17.5 10 17.5C16.25 17.5 19.1192 12.2825 19.8508 10.6825C19.9489 10.4683 19.9996 10.2355 19.9996 10C19.9996 9.76446 19.9489 9.53168 19.8508 9.3175ZM10 15C9.01111 15 8.04441 14.7068 7.22216 14.1573C6.39992 13.6079 5.75906 12.827 5.38062 11.9134C5.00218 10.9998 4.90316 9.99445 5.09609 9.02455C5.28901 8.05464 5.76522 7.16373 6.46448 6.46447C7.16374 5.7652 8.05466 5.289 9.02456 5.09607C9.99447 4.90315 10.9998 5.00216 11.9134 5.3806C12.8271 5.75904 13.608 6.3999 14.1574 7.22215C14.7068 8.04439 15 9.01109 15 10C14.9987 11.3257 14.4715 12.5967 13.5341 13.5341C12.5967 14.4715 11.3257 14.9987 10 15Z" fill="#179B9B"/>
<path d="M9.99996 13.3334C11.8409 13.3334 13.3333 11.841 13.3333 10.0001C13.3333 8.15913 11.8409 6.66675 9.99996 6.66675C8.15901 6.66675 6.66663 8.15913 6.66663 10.0001C6.66663 11.841 8.15901 13.3334 9.99996 13.3334Z" fill="#179B9B"/>
</svg>
