<svg width="137" height="37" viewBox="0 0 137 37" fill="none" xmlns="http://www.w3.org/2000/svg">
<path d="M2.316 11V1.2H6.348C7.216 1.2 7.958 1.34 8.574 1.62C9.19933 1.9 9.68 2.30133 10.016 2.824C10.352 3.34667 10.52 3.96733 10.52 4.686C10.52 5.40467 10.352 6.02533 10.016 6.548C9.68 7.07067 9.19933 7.472 8.574 7.752C7.958 8.032 7.216 8.172 6.348 8.172H3.324L4.136 7.318V11H2.316ZM4.136 7.514L3.324 6.632H6.264C7.06667 6.632 7.66867 6.464 8.07 6.128C8.48067 5.78267 8.686 5.302 8.686 4.686C8.686 4.06067 8.48067 3.58 8.07 3.244C7.66867 2.908 7.06667 2.74 6.264 2.74H3.324L4.136 1.844V7.514ZM15.5021 11.098C14.7368 11.098 14.0555 10.9347 13.4581 10.608C12.8608 10.272 12.3895 9.81467 12.0441 9.236C11.6988 8.65733 11.5261 7.99933 11.5261 7.262C11.5261 6.51533 11.6988 5.85733 12.0441 5.288C12.3895 4.70933 12.8608 4.25667 13.4581 3.93C14.0555 3.60333 14.7368 3.44 15.5021 3.44C16.2768 3.44 16.9628 3.60333 17.5601 3.93C18.1668 4.25667 18.6381 4.70467 18.9741 5.274C19.3195 5.84333 19.4921 6.506 19.4921 7.262C19.4921 7.99933 19.3195 8.65733 18.9741 9.236C18.6381 9.81467 18.1668 10.272 17.5601 10.608C16.9628 10.9347 16.2768 11.098 15.5021 11.098ZM15.5021 9.6C15.9315 9.6 16.3141 9.50667 16.6501 9.32C16.9861 9.13333 17.2475 8.86267 17.4341 8.508C17.6301 8.15333 17.7281 7.738 17.7281 7.262C17.7281 6.77667 17.6301 6.36133 17.4341 6.016C17.2475 5.66133 16.9861 5.39067 16.6501 5.204C16.3141 5.01733 15.9361 4.924 15.5161 4.924C15.0868 4.924 14.7041 5.01733 14.3681 5.204C14.0415 5.39067 13.7801 5.66133 13.5841 6.016C13.3881 6.36133 13.2901 6.77667 13.2901 7.262C13.2901 7.738 13.3881 8.15333 13.5841 8.508C13.7801 8.86267 14.0415 9.13333 14.3681 9.32C14.7041 9.50667 15.0821 9.6 15.5021 9.6ZM22.6125 11L19.8685 3.524H21.5205L23.8725 10.118H23.0885L25.5525 3.524H27.0225L29.4165 10.118H28.6465L31.0685 3.524H32.6225L29.8645 11H28.1845L26.0005 5.162H26.5185L24.2925 11H22.6125ZM37.1347 11.098C36.304 11.098 35.576 10.9347 34.9507 10.608C34.3347 10.272 33.854 9.81467 33.5087 9.236C33.1727 8.65733 33.0047 7.99933 33.0047 7.262C33.0047 6.51533 33.168 5.85733 33.4947 5.288C33.8307 4.70933 34.288 4.25667 34.8667 3.93C35.4547 3.60333 36.122 3.44 36.8687 3.44C37.5967 3.44 38.2453 3.59867 38.8147 3.916C39.384 4.23333 39.832 4.68133 40.1587 5.26C40.4853 5.83867 40.6487 6.52 40.6487 7.304C40.6487 7.37867 40.644 7.46267 40.6347 7.556C40.6347 7.64933 40.63 7.738 40.6207 7.822H34.3907V6.66H39.6967L39.0107 7.024C39.02 6.59467 38.9313 6.21667 38.7447 5.89C38.558 5.56333 38.3013 5.30667 37.9747 5.12C37.6573 4.93333 37.2887 4.84 36.8687 4.84C36.4393 4.84 36.0613 4.93333 35.7347 5.12C35.4173 5.30667 35.1653 5.568 34.9787 5.904C34.8013 6.23067 34.7127 6.618 34.7127 7.066V7.346C34.7127 7.794 34.8153 8.19067 35.0207 8.536C35.226 8.88133 35.5153 9.14733 35.8887 9.334C36.262 9.52067 36.6913 9.614 37.1767 9.614C37.5967 9.614 37.9747 9.54867 38.3107 9.418C38.6467 9.28733 38.9453 9.082 39.2067 8.802L40.1447 9.88C39.8087 10.272 39.384 10.5753 38.8707 10.79C38.3667 10.9953 37.788 11.098 37.1347 11.098ZM42.3296 11V3.524H43.9956V5.582L43.7996 4.98C44.0236 4.476 44.3736 4.09333 44.8496 3.832C45.335 3.57067 45.937 3.44 46.6556 3.44V5.106C46.581 5.08733 46.511 5.078 46.4456 5.078C46.3803 5.06867 46.315 5.064 46.2496 5.064C45.587 5.064 45.0596 5.26 44.6676 5.652C44.2756 6.03467 44.0796 6.60867 44.0796 7.374V11H42.3296ZM51.5858 11.098C50.7552 11.098 50.0272 10.9347 49.4018 10.608C48.7858 10.272 48.3052 9.81467 47.9598 9.236C47.6238 8.65733 47.4558 7.99933 47.4558 7.262C47.4558 6.51533 47.6192 5.85733 47.9458 5.288C48.2818 4.70933 48.7392 4.25667 49.3178 3.93C49.9058 3.60333 50.5732 3.44 51.3198 3.44C52.0478 3.44 52.6965 3.59867 53.2658 3.916C53.8352 4.23333 54.2832 4.68133 54.6098 5.26C54.9365 5.83867 55.0998 6.52 55.0998 7.304C55.0998 7.37867 55.0952 7.46267 55.0858 7.556C55.0858 7.64933 55.0812 7.738 55.0718 7.822H48.8418V6.66H54.1478L53.4618 7.024C53.4712 6.59467 53.3825 6.21667 53.1958 5.89C53.0092 5.56333 52.7525 5.30667 52.4258 5.12C52.1085 4.93333 51.7398 4.84 51.3198 4.84C50.8905 4.84 50.5125 4.93333 50.1858 5.12C49.8685 5.30667 49.6165 5.568 49.4298 5.904C49.2525 6.23067 49.1638 6.618 49.1638 7.066V7.346C49.1638 7.794 49.2665 8.19067 49.4718 8.536C49.6772 8.88133 49.9665 9.14733 50.3398 9.334C50.7132 9.52067 51.1425 9.614 51.6278 9.614C52.0478 9.614 52.4258 9.54867 52.7618 9.418C53.0978 9.28733 53.3965 9.082 53.6578 8.802L54.5958 9.88C54.2598 10.272 53.8352 10.5753 53.3218 10.79C52.8178 10.9953 52.2392 11.098 51.5858 11.098ZM59.9448 11.098C59.2261 11.098 58.5775 10.9393 57.9988 10.622C57.4295 10.2953 56.9815 9.84733 56.6548 9.278C56.3281 8.70867 56.1648 8.03667 56.1648 7.262C56.1648 6.48733 56.3281 5.81533 56.6548 5.246C56.9815 4.67667 57.4295 4.23333 57.9988 3.916C58.5775 3.59867 59.2261 3.44 59.9448 3.44C60.5701 3.44 61.1301 3.58 61.6248 3.86C62.1195 4.13067 62.5115 4.546 62.8008 5.106C63.0901 5.666 63.2348 6.38467 63.2348 7.262C63.2348 8.13 63.0948 8.84867 62.8148 9.418C62.5348 9.978 62.1475 10.398 61.6528 10.678C61.1581 10.958 60.5888 11.098 59.9448 11.098ZM60.1548 9.6C60.5748 9.6 60.9481 9.50667 61.2748 9.32C61.6108 9.13333 61.8768 8.86267 62.0728 8.508C62.2781 8.15333 62.3808 7.738 62.3808 7.262C62.3808 6.77667 62.2781 6.36133 62.0728 6.016C61.8768 5.66133 61.6108 5.39067 61.2748 5.204C60.9481 5.01733 60.5748 4.924 60.1548 4.924C59.7348 4.924 59.3568 5.01733 59.0208 5.204C58.6941 5.39067 58.4281 5.66133 58.2228 6.016C58.0268 6.36133 57.9288 6.77667 57.9288 7.262C57.9288 7.738 58.0268 8.15333 58.2228 8.508C58.4281 8.86267 58.6941 9.13333 59.0208 9.32C59.3568 9.50667 59.7348 9.6 60.1548 9.6ZM62.4228 11V9.236L62.4928 7.248L62.3528 5.26V0.611999H64.0888V11H62.4228ZM70.4293 11V1.2H75.0213C76.1973 1.2 77.0933 1.43333 77.7093 1.9C78.3253 2.35733 78.6333 2.97333 78.6333 3.748C78.6333 4.27067 78.5119 4.71867 78.2693 5.092C78.0266 5.456 77.6999 5.74067 77.2893 5.946C76.8879 6.142 76.4493 6.24 75.9733 6.24L76.2253 5.736C76.7759 5.736 77.2706 5.83867 77.7093 6.044C78.1479 6.24 78.4933 6.52933 78.7453 6.912C79.0066 7.29467 79.1373 7.77067 79.1373 8.34C79.1373 9.18 78.8153 9.83333 78.1713 10.3C77.5273 10.7667 76.5706 11 75.3013 11H70.4293ZM72.2493 9.572H75.1893C75.8706 9.572 76.3933 9.46 76.7573 9.236C77.1213 9.012 77.3033 8.65267 77.3033 8.158C77.3033 7.67267 77.1213 7.318 76.7573 7.094C76.3933 6.86067 75.8706 6.744 75.1893 6.744H72.1093V5.33H74.8253C75.4599 5.33 75.9453 5.218 76.2813 4.994C76.6266 4.77 76.7993 4.434 76.7993 3.986C76.7993 3.52867 76.6266 3.188 76.2813 2.964C75.9453 2.74 75.4599 2.628 74.8253 2.628H72.2493V9.572ZM81.5277 13.814C81.1637 13.814 80.7997 13.7533 80.4357 13.632C80.0717 13.5107 79.7683 13.3427 79.5257 13.128L80.2257 11.84C80.403 11.9987 80.6037 12.1247 80.8277 12.218C81.0517 12.3113 81.2803 12.358 81.5137 12.358C81.831 12.358 82.0877 12.2787 82.2837 12.12C82.4797 11.9613 82.6617 11.6953 82.8297 11.322L83.2637 10.342L83.4037 10.132L86.2317 3.524H87.9117L84.4117 11.602C84.1783 12.162 83.917 12.6053 83.6277 12.932C83.3477 13.2587 83.0303 13.4873 82.6757 13.618C82.3303 13.7487 81.9477 13.814 81.5277 13.814ZM83.0677 11.266L79.6937 3.524H81.5137L84.2577 9.978L83.0677 11.266Z" fill="#C2C2C2"/>
<path d="M0.601562 36L5.04297 19.125H12.4609L11.8984 32.8359H11.5352L16.6445 19.125H24.0977L21.4609 36H16.9023L19.0703 22.4766H19.2695L13.8789 36H8.32422L8.61719 22.4766H8.76953L5.25391 36H0.601562ZM22.5578 36L26.0969 19.125H38.1203L37.2648 23.2266H29.8469L29.4133 25.2773H35.5305L34.7219 29.1445H28.6047L28.0187 31.8984H35.5891L34.7336 36H22.5578ZM35.5961 36L39.1586 19.125H45.9437L48.8031 34.207L47.3148 34.2773L50.5492 19.125H55.0492L51.393 36H44.643L41.6664 20.8242L43.2602 20.7539L40.0258 36H35.5961ZM61.5133 36.3281C59.7867 36.3281 58.318 36.0391 57.107 35.4609C55.8961 34.8828 55.0367 34.0156 54.5289 32.8594C54.0211 31.6953 53.9508 30.2461 54.318 28.5117L56.2984 19.125H60.9156L58.8531 28.9453C58.7203 29.5703 58.7086 30.1328 58.818 30.6328C58.9352 31.125 59.2125 31.5156 59.65 31.8047C60.0875 32.0859 60.7281 32.2266 61.5719 32.2266C62.4156 32.2266 63.0953 31.9922 63.6109 31.5234C64.1266 31.0547 64.4938 30.3047 64.7125 29.2734L66.8336 19.125H71.4625L69.1539 30.1406C68.8805 31.4688 68.3609 32.5938 67.5953 33.5156C66.8375 34.4375 65.9273 35.1367 64.8648 35.6133C63.8102 36.0898 62.693 36.3281 61.5133 36.3281ZM74.4812 36L71.8797 19.125H73.9773L76.0281 34.5117H75.5945L84.0437 19.125H86.4461L76.7664 36H74.4812ZM83.9805 36L87.5547 19.125H98.2305L97.8672 20.9062H89.2773L88.1641 26.1328H95.6641L95.3008 27.9141H87.7891L86.4414 34.2188H95.207L94.832 36H83.9805ZM96.2336 36L99.8078 19.125H105.128C106.55 19.125 107.671 19.3047 108.491 19.6641C109.32 20.0156 109.909 20.4961 110.261 21.1055C110.613 21.707 110.788 22.3828 110.788 23.1328C110.788 23.5938 110.71 24.1094 110.554 24.6797C110.405 25.2422 110.136 25.7812 109.745 26.2969C109.355 26.8125 108.8 27.2383 108.081 27.5742C107.37 27.9102 106.456 28.0781 105.339 28.0781H100.007L98.3313 36H96.2336ZM105.644 36L103.23 27.4688H105.515L107.988 36H105.644ZM100.382 26.2969H105.245C106.253 26.2969 107.07 26.0352 107.695 25.5117C108.327 24.9805 108.636 24.2969 108.62 23.4609C108.613 23.0234 108.495 22.6094 108.269 22.2188C108.042 21.8281 107.671 21.5117 107.155 21.2695C106.64 21.0195 105.937 20.8945 105.046 20.8945H101.53L100.382 26.2969ZM115.952 36.2812C115.03 36.2812 114.19 36.1562 113.432 35.9062C112.682 35.6484 112.03 35.2812 111.475 34.8047C110.92 34.3281 110.483 33.75 110.162 33.0703C109.842 32.3906 109.662 31.625 109.623 30.7734L112.178 30.2461C112.03 31.0742 112.092 31.8086 112.366 32.4492C112.647 33.0898 113.1 33.5938 113.725 33.9609C114.35 34.3203 115.1 34.5 115.975 34.5C116.905 34.5 117.651 34.3164 118.213 33.9492C118.784 33.582 119.198 33.125 119.455 32.5781C119.721 32.0234 119.854 31.4727 119.854 30.9258C119.854 30.3242 119.686 29.8281 119.35 29.4375C119.022 29.0469 118.448 28.707 117.627 28.418L115.647 27.7148C115.319 27.5977 114.944 27.4609 114.522 27.3047C114.1 27.1406 113.694 26.9219 113.303 26.6484C112.912 26.3672 112.588 26 112.33 25.5469C112.08 25.0859 111.955 24.5039 111.955 23.8008C111.955 22.9023 112.186 22.0781 112.647 21.3281C113.108 20.5781 113.776 19.9766 114.651 19.5234C115.526 19.0703 116.584 18.8438 117.827 18.8438C118.662 18.8438 119.416 18.9531 120.088 19.1719C120.768 19.3906 121.354 19.7031 121.846 20.1094C122.338 20.5078 122.725 20.9883 123.006 21.5508C123.295 22.1055 123.463 22.7266 123.51 23.4141L121.061 23.9414C121.131 23.4023 121.049 22.8789 120.815 22.3711C120.58 21.8633 120.194 21.4453 119.655 21.1172C119.123 20.7891 118.44 20.625 117.604 20.625C116.932 20.625 116.327 20.7422 115.787 20.9766C115.248 21.2031 114.823 21.5273 114.51 21.9492C114.198 22.3633 114.041 22.8477 114.041 23.4023C114.041 23.9805 114.248 24.4531 114.662 24.8203C115.077 25.1797 115.772 25.5273 116.748 25.8633L118.19 26.3555C118.909 26.5977 119.557 26.9062 120.135 27.2812C120.721 27.6562 121.186 28.125 121.53 28.6875C121.873 29.25 122.045 29.9453 122.045 30.7734C122.045 31.3828 121.936 32.0117 121.717 32.6602C121.498 33.3008 121.147 33.8984 120.662 34.4531C120.186 35 119.557 35.4414 118.776 35.7773C118.002 36.1133 117.061 36.2812 115.952 36.2812ZM122.662 36L126.236 19.125H136.912L136.548 20.9062H127.959L126.845 26.1328H134.345L133.982 27.9141H126.47L125.123 34.2188H133.888L133.513 36H122.662Z" fill="#C2C2C2"/>
</svg>
