<svg width="183" height="42" viewBox="0 0 183 42" fill="none" xmlns="http://www.w3.org/2000/svg">
<path d="M0.941428 40L17.99 0.999997H30.9157L47.9643 40H34.37L21.7786 7.24H26.9043L14.3129 40H0.941428ZM11.0814 33.2029L14.4243 23.7314H32.3643L35.7071 33.2029H11.0814ZM92.1514 40.8914C89.0314 40.8914 86.1342 40.4086 83.4599 39.4429C80.8228 38.44 78.5199 37.0286 76.5514 35.2086C74.6199 33.3886 73.1157 31.2343 72.0385 28.7457C70.9614 26.2571 70.4228 23.5086 70.4228 20.5C70.4228 17.4914 70.9614 14.7429 72.0385 12.2543C73.1157 9.76571 74.6199 7.61143 76.5514 5.79143C78.5199 3.97143 80.8228 2.57857 83.4599 1.61286C86.1342 0.609998 89.0314 0.10857 92.1514 0.10857C95.9771 0.10857 99.3571 0.777141 102.291 2.11428C105.263 3.45143 107.714 5.38285 109.646 7.90857L101.344 15.3186C100.193 13.87 98.9114 12.7557 97.4999 11.9757C96.1257 11.1586 94.5657 10.75 92.8199 10.75C91.4457 10.75 90.2014 10.9729 89.0871 11.4186C87.9728 11.8643 87.0071 12.5143 86.1899 13.3686C85.4099 14.2229 84.7971 15.2629 84.3514 16.4886C83.9057 17.6771 83.6828 19.0143 83.6828 20.5C83.6828 21.9857 83.9057 23.3414 84.3514 24.5671C84.7971 25.7557 85.4099 26.7771 86.1899 27.6314C87.0071 28.4857 87.9728 29.1357 89.0871 29.5814C90.2014 30.0271 91.4457 30.25 92.8199 30.25C94.5657 30.25 96.1257 29.86 97.4999 29.08C98.9114 28.2629 100.193 27.13 101.344 25.6814L109.646 33.0914C107.714 35.58 105.263 37.5114 102.291 38.8857C99.3571 40.2229 95.9771 40.8914 92.1514 40.8914Z" fill="#2E302E"/>
<path d="M39.477 40V0.999997H60.3141C65.6999 0.999997 69.6741 1.96571 72.237 3.89714C74.7999 5.79143 76.0813 8.22428 76.0813 11.1957C76.0813 13.1643 75.5241 14.9286 74.4099 16.4886C73.3327 18.0114 71.7541 19.2186 69.6741 20.11C67.5941 21.0014 65.0313 21.4471 61.9856 21.4471L63.0999 18.4386C66.1456 18.4386 68.7641 18.8657 70.9556 19.72C73.1841 20.5743 74.8927 21.8186 76.0813 23.4529C77.307 25.05 77.9199 26.9814 77.9199 29.2471C77.9199 32.6271 76.5084 35.2643 73.6856 37.1586C70.8999 39.0529 66.8141 40 61.4284 40H39.477ZM52.4027 30.8071H60.3141C61.7627 30.8071 62.8399 30.5471 63.5456 30.0271C64.2884 29.5071 64.6599 28.7457 64.6599 27.7429C64.6599 26.74 64.2884 25.9786 63.5456 25.4586C62.8399 24.9386 61.7627 24.6786 60.3141 24.6786H51.5113V15.9871H58.5313C60.017 15.9871 61.0941 15.7457 61.7627 15.2629C62.4684 14.7429 62.8213 14.0186 62.8213 13.09C62.8213 12.1243 62.4684 11.4 61.7627 10.9171C61.0941 10.4343 60.017 10.1929 58.5313 10.1929H52.4027V30.8071Z" fill="#179B9B"/>
<path d="M113.885 19V3.4H120.972C122.666 3.4 124.159 3.72686 125.452 4.38057C126.744 5.01943 127.755 5.91829 128.483 7.07714C129.211 8.236 129.575 9.61029 129.575 11.2C129.575 12.7749 129.211 14.1491 128.483 15.3229C127.755 16.4817 126.744 17.388 125.452 18.0417C124.159 18.6806 122.666 19 120.972 19H113.885ZM117.496 16.036H120.794C121.834 16.036 122.733 15.8429 123.491 15.4566C124.263 15.0554 124.857 14.4909 125.273 13.7629C125.704 13.0349 125.92 12.1806 125.92 11.2C125.92 10.2046 125.704 9.35029 125.273 8.63714C124.857 7.90914 124.263 7.352 123.491 6.96571C122.733 6.56457 121.834 6.364 120.794 6.364H117.496V16.036ZM136.665 19.1783C135.298 19.1783 134.095 18.9109 133.055 18.376C132.03 17.8411 131.235 17.1131 130.67 16.192C130.106 15.256 129.824 14.1937 129.824 13.0051C129.824 11.8017 130.098 10.7394 130.648 9.81829C131.213 8.88229 131.978 8.15429 132.944 7.63429C133.909 7.09943 135.001 6.832 136.22 6.832C137.393 6.832 138.448 7.08457 139.384 7.58971C140.335 8.08 141.085 8.79314 141.635 9.72914C142.185 10.6503 142.46 11.7571 142.46 13.0497C142.46 13.1834 142.452 13.3394 142.437 13.5177C142.422 13.6811 142.408 13.8371 142.393 13.9857H132.654V11.9577H140.565L139.228 12.5594C139.228 11.9354 139.102 11.3931 138.849 10.9326C138.597 10.472 138.248 10.1154 137.802 9.86286C137.356 9.59543 136.836 9.46171 136.242 9.46171C135.648 9.46171 135.12 9.59543 134.66 9.86286C134.214 10.1154 133.865 10.4794 133.612 10.9549C133.36 11.4154 133.233 11.9651 133.233 12.604V13.1389C133.233 13.7926 133.374 14.372 133.657 14.8771C133.954 15.3674 134.362 15.7463 134.882 16.0137C135.417 16.2663 136.041 16.3926 136.754 16.3926C137.393 16.3926 137.95 16.296 138.426 16.1029C138.916 15.9097 139.362 15.62 139.763 15.2337L141.613 17.2394C141.063 17.8634 140.372 18.3463 139.54 18.688C138.708 19.0149 137.75 19.1783 136.665 19.1783ZM150.465 19V16.66L150.242 16.1474V11.9577C150.242 11.2149 150.012 10.6354 149.551 10.2194C149.105 9.80343 148.415 9.59543 147.479 9.59543C146.84 9.59543 146.208 9.69943 145.584 9.90743C144.975 10.1006 144.455 10.368 144.024 10.7097L142.776 8.28057C143.43 7.82 144.217 7.46343 145.139 7.21086C146.06 6.95829 146.996 6.832 147.947 6.832C149.774 6.832 151.193 7.26286 152.203 8.12457C153.213 8.98629 153.719 10.3309 153.719 12.1583V19H150.465ZM146.81 19.1783C145.874 19.1783 145.072 19.0223 144.403 18.7103C143.735 18.3834 143.222 17.9451 142.865 17.3954C142.509 16.8457 142.331 16.2291 142.331 15.5457C142.331 14.8326 142.501 14.2086 142.843 13.6737C143.2 13.1389 143.757 12.7229 144.515 12.4257C145.272 12.1137 146.26 11.9577 147.479 11.9577H150.665V13.9857H147.857C147.04 13.9857 146.476 14.1194 146.164 14.3869C145.867 14.6543 145.718 14.9886 145.718 15.3897C145.718 15.8354 145.889 16.192 146.231 16.4594C146.587 16.712 147.07 16.8383 147.679 16.8383C148.259 16.8383 148.779 16.7046 149.239 16.4371C149.7 16.1549 150.034 15.7463 150.242 15.2114L150.777 16.816C150.524 17.5886 150.064 18.1754 149.395 18.5766C148.727 18.9777 147.865 19.1783 146.81 19.1783ZM155.528 19V2.464H159.004V19H155.528ZM166.844 19.1783C165.477 19.1783 164.274 18.9109 163.234 18.376C162.209 17.8411 161.414 17.1131 160.849 16.192C160.285 15.256 160.002 14.1937 160.002 13.0051C160.002 11.8017 160.277 10.7394 160.827 9.81829C161.392 8.88229 162.157 8.15429 163.122 7.63429C164.088 7.09943 165.18 6.832 166.398 6.832C167.572 6.832 168.627 7.08457 169.563 7.58971C170.514 8.08 171.264 8.79314 171.814 9.72914C172.364 10.6503 172.638 11.7571 172.638 13.0497C172.638 13.1834 172.631 13.3394 172.616 13.5177C172.601 13.6811 172.586 13.8371 172.572 13.9857H162.833V11.9577H170.744L169.407 12.5594C169.407 11.9354 169.281 11.3931 169.028 10.9326C168.776 10.472 168.426 10.1154 167.981 9.86286C167.535 9.59543 167.015 9.46171 166.421 9.46171C165.826 9.46171 165.299 9.59543 164.838 9.86286C164.393 10.1154 164.044 10.4794 163.791 10.9549C163.538 11.4154 163.412 11.9651 163.412 12.604V13.1389C163.412 13.7926 163.553 14.372 163.836 14.8771C164.133 15.3674 164.541 15.7463 165.061 16.0137C165.596 16.2663 166.22 16.3926 166.933 16.3926C167.572 16.3926 168.129 16.296 168.605 16.1029C169.095 15.9097 169.541 15.62 169.942 15.2337L171.792 17.2394C171.242 17.8634 170.551 18.3463 169.719 18.688C168.887 19.0149 167.929 19.1783 166.844 19.1783ZM173.616 19V7.01029H176.936V10.3977L176.468 9.41714C176.825 8.57029 177.397 7.93143 178.184 7.50057C178.972 7.05486 179.93 6.832 181.059 6.832V10.0411C180.911 10.0263 180.777 10.0189 180.658 10.0189C180.539 10.004 180.413 9.99657 180.279 9.99657C179.328 9.99657 178.556 10.2714 177.962 10.8211C177.382 11.356 177.092 12.1954 177.092 13.3394V19H173.616ZM121.418 37.2674C120.185 37.2674 119.048 37.0743 118.008 36.688C116.983 36.2869 116.084 35.7223 115.312 34.9943C114.554 34.2663 113.96 33.412 113.529 32.4314C113.113 31.4509 112.905 30.3737 112.905 29.2C112.905 28.0263 113.113 26.9491 113.529 25.9686C113.96 24.988 114.561 24.1337 115.334 23.4057C116.107 22.6777 117.013 22.1206 118.053 21.7343C119.093 21.3331 120.237 21.1326 121.485 21.1326C122.867 21.1326 124.107 21.3629 125.207 21.8234C126.321 22.284 127.257 22.9526 128.015 23.8291L125.697 25.9686C125.132 25.3743 124.516 24.936 123.847 24.6537C123.179 24.3566 122.451 24.208 121.663 24.208C120.905 24.208 120.215 24.3269 119.591 24.5646C118.967 24.8023 118.424 25.144 117.964 25.5897C117.518 26.0354 117.169 26.5629 116.916 27.172C116.679 27.7811 116.56 28.4571 116.56 29.2C116.56 29.928 116.679 30.5966 116.916 31.2057C117.169 31.8149 117.518 32.3497 117.964 32.8103C118.424 33.256 118.959 33.5977 119.568 33.8354C120.192 34.0731 120.876 34.192 121.619 34.192C122.332 34.192 123.023 34.0806 123.691 33.8577C124.375 33.62 125.036 33.2263 125.675 32.6766L127.725 35.284C126.878 35.9229 125.89 36.4131 124.761 36.7549C123.647 37.0966 122.532 37.2674 121.418 37.2674ZM124.427 34.816V28.9549H127.725V35.284L124.427 34.816ZM129.496 37V25.0103H132.817V28.3977L132.349 27.4171C132.705 26.5703 133.277 25.9314 134.065 25.5006C134.852 25.0549 135.811 24.832 136.94 24.832V28.0411C136.791 28.0263 136.657 28.0189 136.539 28.0189C136.42 28.004 136.293 27.9966 136.16 27.9966C135.209 27.9966 134.436 28.2714 133.842 28.8211C133.263 29.356 132.973 30.1954 132.973 31.3394V37H129.496ZM143.266 37.1783C141.988 37.1783 140.852 36.9109 139.856 36.376C138.876 35.8411 138.096 35.1131 137.516 34.192C136.952 33.256 136.669 32.1937 136.669 31.0051C136.669 29.8017 136.952 28.7394 137.516 27.8183C138.096 26.8823 138.876 26.1543 139.856 25.6343C140.852 25.0994 141.988 24.832 143.266 24.832C144.529 24.832 145.658 25.0994 146.653 25.6343C147.649 26.1543 148.429 26.8749 148.993 27.796C149.558 28.7171 149.84 29.7869 149.84 31.0051C149.84 32.1937 149.558 33.256 148.993 34.192C148.429 35.1131 147.649 35.8411 146.653 36.376C145.658 36.9109 144.529 37.1783 143.266 37.1783ZM143.266 34.3257C143.845 34.3257 144.365 34.192 144.826 33.9246C145.287 33.6571 145.651 33.2783 145.918 32.788C146.185 32.2829 146.319 31.6886 146.319 31.0051C146.319 30.3069 146.185 29.7126 145.918 29.2223C145.651 28.732 145.287 28.3531 144.826 28.0857C144.365 27.8183 143.845 27.6846 143.266 27.6846C142.687 27.6846 142.167 27.8183 141.706 28.0857C141.245 28.3531 140.874 28.732 140.592 29.2223C140.324 29.7126 140.191 30.3069 140.191 31.0051C140.191 31.6886 140.324 32.2829 140.592 32.788C140.874 33.2783 141.245 33.6571 141.706 33.9246C142.167 34.192 142.687 34.3257 143.266 34.3257ZM155.886 37.1783C154.89 37.1783 153.999 36.9851 153.212 36.5989C152.439 36.2126 151.837 35.6257 151.406 34.8383C150.976 34.036 150.76 33.0183 150.76 31.7851V25.0103H154.237V31.2726C154.237 32.268 154.445 33.0034 154.861 33.4789C155.292 33.9394 155.893 34.1697 156.666 34.1697C157.201 34.1697 157.676 34.0583 158.092 33.8354C158.508 33.5977 158.835 33.2411 159.073 32.7657C159.31 32.2754 159.429 31.6663 159.429 30.9383V25.0103H162.906V37H159.608V33.7017L160.209 34.66C159.808 35.492 159.214 36.1234 158.426 36.5543C157.654 36.9703 156.807 37.1783 155.886 37.1783ZM171.876 37.1783C170.866 37.1783 169.982 36.9554 169.224 36.5097C168.467 36.064 167.872 35.388 167.442 34.4817C167.026 33.5606 166.818 32.4017 166.818 31.0051C166.818 29.5937 167.018 28.4349 167.419 27.5286C167.82 26.6223 168.4 25.9463 169.158 25.5006C169.915 25.0549 170.822 24.832 171.876 24.832C173.006 24.832 174.016 25.092 174.907 25.612C175.814 26.1171 176.527 26.8303 177.047 27.7514C177.582 28.6726 177.849 29.7571 177.849 31.0051C177.849 32.268 177.582 33.36 177.047 34.2811C176.527 35.2023 175.814 35.9154 174.907 36.4206C174.016 36.9257 173.006 37.1783 171.876 37.1783ZM164.79 41.3234V25.0103H168.11V27.4617L168.043 31.0274L168.266 34.5709V41.3234H164.79ZM171.275 34.3257C171.854 34.3257 172.367 34.192 172.812 33.9246C173.273 33.6571 173.637 33.2783 173.904 32.788C174.187 32.2829 174.328 31.6886 174.328 31.0051C174.328 30.3069 174.187 29.7126 173.904 29.2223C173.637 28.732 173.273 28.3531 172.812 28.0857C172.367 27.8183 171.854 27.6846 171.275 27.6846C170.695 27.6846 170.175 27.8183 169.715 28.0857C169.254 28.3531 168.89 28.732 168.623 29.2223C168.355 29.7126 168.222 30.3069 168.222 31.0051C168.222 31.6886 168.355 32.2829 168.623 32.788C168.89 33.2783 169.254 33.6571 169.715 33.9246C170.175 34.192 170.695 34.3257 171.275 34.3257Z" fill="#179B9B"/>
</svg>
