<svg width="24" height="24" viewBox="0 0 24 24" fill="none" xmlns="http://www.w3.org/2000/svg">
<g clip-path="url(#clip0_0_307)">
<path d="M21 12C20.9997 11.4483 20.9495 10.8977 20.85 10.355L23.893 8.6L20.893 3.4L17.849 5.159C17.0085 4.43993 16.0427 3.88194 15 3.513V0H8.99999V3.513C7.95725 3.88194 6.99145 4.43993 6.15099 5.159L3.10699 3.4L0.106995 8.6L3.14999 10.355C2.9501 11.4426 2.9501 12.5574 3.14999 13.645L0.106995 15.4L3.10699 20.6L6.15099 18.842C6.99153 19.5607 7.95732 20.1184 8.99999 20.487V24H15V20.487C16.0427 20.1181 17.0085 19.5601 17.849 18.841L20.893 20.6L23.893 15.4L20.85 13.645C20.9495 13.1023 20.9997 12.5517 21 12ZM15 12C15 12.5933 14.824 13.1734 14.4944 13.6667C14.1648 14.1601 13.6962 14.5446 13.148 14.7716C12.5999 14.9987 11.9967 15.0581 11.4147 14.9424C10.8328 14.8266 10.2982 14.5409 9.87867 14.1213C9.45912 13.7018 9.17339 13.1672 9.05764 12.5853C8.94188 12.0033 9.00129 11.4001 9.22836 10.8519C9.45542 10.3038 9.83994 9.83524 10.3333 9.50559C10.8266 9.17595 11.4067 9 12 9C12.7956 9 13.5587 9.31607 14.1213 9.87868C14.6839 10.4413 15 11.2044 15 12Z" fill="#2E302E"/>
</g>
<defs>
<clipPath id="clip0_0_307">
<rect width="24" height="24" fill="white"/>
</clipPath>
</defs>
</svg>
