<svg width="45" height="45" viewBox="0 0 45 45" fill="none" xmlns="http://www.w3.org/2000/svg">
<path d="M0.000619758 22.4736C-0.0185169 27.2818 3.86385 31.1952 8.67215 31.2143C10.8866 31.2231 13.0212 30.3878 14.6414 28.8782L27.6154 34.7361C27.5253 35.2212 27.4758 35.7128 27.4675 36.2062C27.4522 41.0476 31.3644 44.9846 36.2058 45C41.0472 45.0154 44.9843 41.103 44.9997 36.2617C45.015 31.4203 41.1027 27.4832 36.2613 27.4678C33.3688 27.4587 30.658 28.877 29.0163 31.2585L16.8268 25.7546C17.6926 23.6639 17.696 21.3157 16.8362 19.2226L29.0088 13.6906C31.7498 17.6549 37.1856 18.6465 41.1499 15.9055C45.1143 13.1645 46.1058 7.72882 43.3648 3.76446C40.6238 -0.199894 35.188 -1.19149 31.2236 1.54953C28.8627 3.18194 27.4555 5.87081 27.46 8.74113C27.4679 9.23518 27.518 9.72755 27.6098 10.2131L14.6695 16.0933C11.1635 12.8012 5.6526 12.9745 2.36048 16.4805C0.836838 18.1033 -0.00763182 20.2477 0.000619758 22.4736Z" fill="#2E302E"/>
</svg>
